<?xml version="1.0" encoding="UTF-8" standalone="no"?>
<!-- Created with Inkscape (http://www.inkscape.org/) -->

<svg
   width="5.0799999cm"
   height="4.3899999cm"
   viewBox="0 0 50.799999 43.899998"
   version="1.1"
   id="svg8"
   inkscape:version="1.3.2 (1:1.3.2+202311252150+091e20ef0f)"
   sodipodi:docname="many.svg"
   inkscape:export-filename="many.png"
   inkscape:export-xdpi="150"
   inkscape:export-ydpi="150"
   xml:space="preserve"
   xmlns:inkscape="http://www.inkscape.org/namespaces/inkscape"
   xmlns:sodipodi="http://sodipodi.sourceforge.net/DTD/sodipodi-0.dtd"
   xmlns="http://www.w3.org/2000/svg"
   xmlns:svg="http://www.w3.org/2000/svg"
   xmlns:rdf="http://www.w3.org/1999/02/22-rdf-syntax-ns#"
   xmlns:cc="http://creativecommons.org/ns#"
   xmlns:dc="http://purl.org/dc/elements/1.1/"><defs
     id="defs2"><inkscape:path-effect
       effect="bspline"
       id="path-effect5"
       is_visible="true"
       lpeversion="1.3"
       weight="33.333333"
       steps="2"
       helper_size="0"
       apply_no_weight="true"
       apply_with_weight="true"
       only_selected="false"
       uniform="false" /></defs><sodipodi:namedview
     id="base"
     pagecolor="#ffffff"
     bordercolor="#666666"
     borderopacity="1.0"
     inkscape:pageopacity="0.0"
     inkscape:pageshadow="2"
     inkscape:zoom="2.8"
     inkscape:cx="64.642857"
     inkscape:cy="80.357143"
     inkscape:document-units="mm"
     inkscape:current-layer="layer1"
     showgrid="false"
     units="cm"
     inkscape:snap-global="false"
     inkscape:window-width="1920"
     inkscape:window-height="1049"
     inkscape:window-x="1080"
     inkscape:window-y="0"
     inkscape:window-maximized="1"
     inkscape:showpageshadow="2"
     inkscape:pagecheckerboard="0"
     inkscape:deskcolor="#d1d1d1" /><metadata
     id="metadata5"><rdf:RDF><cc:Work
         rdf:about=""><dc:format>image/svg+xml</dc:format><dc:type
           rdf:resource="http://purl.org/dc/dcmitype/StillImage" /><dc:title /></cc:Work></rdf:RDF></metadata><g
     inkscape:label="Layer 1"
     inkscape:groupmode="layer"
     id="layer1"
     transform="translate(0,-253.10002)"><path
       sodipodi:type="star"
       style="fill:#023047;fill-opacity:1;fill-rule:nonzero;stroke:none;stroke-width:1.32291663;stroke-miterlimit:4;stroke-dasharray:none;stroke-opacity:1"
       id="path815"
       sodipodi:sides="6"
       sodipodi:cx="25.702381"
       sodipodi:cy="275.3609"
       sodipodi:r1="22.257511"
       sodipodi:r2="19.27556"
       sodipodi:arg1="0.5149334"
       sodipodi:arg2="1.0385322"
       inkscape:flatsided="false"
       inkscape:rounded="0"
       inkscape:randomized="0"
       d="m 45.073661,286.32221 -9.589212,5.64768 -9.589201,5.64769 -9.685635,-5.48067 -9.6856446,-5.48064 -0.096424,-11.12834 -0.096443,-11.12834 9.5892119,-5.64767 9.589201,-5.64769 9.685636,5.48066 9.685644,5.48065 0.09642,11.12833 z"
       transform="matrix(0.9902439,0,-0.0084913,0.98726305,2.3999387,3.2237756)" /><path
       sodipodi:type="star"
       style="fill:#d3e3ed;fill-opacity:1;fill-rule:nonzero;stroke:none;stroke-width:1.32292;stroke-miterlimit:4;stroke-dasharray:none;stroke-opacity:1"
       id="path815-8"
       sodipodi:sides="6"
       sodipodi:cx="25.702381"
       sodipodi:cy="275.3609"
       sodipodi:r1="22.257511"
       sodipodi:r2="19.27556"
       sodipodi:arg1="0.5149334"
       sodipodi:arg2="1.0385322"
       inkscape:flatsided="false"
       inkscape:rounded="0"
       inkscape:randomized="0"
       d="m 45.073661,286.32221 -9.589212,5.64768 -9.589201,5.64769 -9.685635,-5.48067 -9.6856446,-5.48064 -0.096424,-11.12834 -0.096443,-11.12834 9.5892119,-5.64767 9.589201,-5.64769 9.685636,5.48066 9.685644,5.48065 0.09642,11.12833 z"
       transform="matrix(0.89508574,0,-0.00767532,0.89239134,4.6714012,29.183392)" /><text
       xml:space="preserve"
       style="font-style:normal;font-variant:normal;font-weight:normal;font-stretch:normal;font-size:10.5833px;line-height:1.25;font-family:Nunito;-inkscape-font-specification:'Nunito, Normal';font-variant-ligatures:normal;font-variant-caps:normal;font-variant-numeric:normal;font-variant-east-asian:normal;fill:#023047;fill-opacity:1;stroke:none;stroke-width:0.264583"
       x="12.775682"
       y="269.19778"
       id="text1"><tspan
         sodipodi:role="line"
         id="tspan1"
         style="font-style:normal;font-variant:normal;font-weight:normal;font-stretch:normal;font-size:10.5833px;font-family:Nunito;-inkscape-font-specification:'Nunito, Normal';font-variant-ligatures:normal;font-variant-caps:normal;font-variant-numeric:normal;font-variant-east-asian:normal;fill:#023047;fill-opacity:1;stroke-width:0.264583"
         x="12.775682"
         y="269.19778">many</tspan></text><path
       d="m 14.948731,277.7957 0.692398,0.6924 m -1.174645,-3.97398 -0.05015,-0.0502 c -0.138327,-0.13833 -0.207511,-0.2075 -0.288212,-0.25696 -0.07158,-0.0438 -0.149605,-0.0762 -0.231186,-0.0958 -0.09206,-0.0221 -0.189876,-0.0221 -0.385502,-0.0221 H 12.12195 c -0.447935,0 -0.671907,0 -0.842995,0.0872 -0.150497,0.0767 -0.272852,0.19903 -0.34953,0.34953 -0.08718,0.17109 -0.08718,0.39505 -0.08718,0.84299 v 3.03929 c 0,0.44794 0,0.67193 0.08718,0.84301 0.07668,0.15048 0.199033,0.27285 0.34953,0.34952 0.171088,0.0872 0.395056,0.0872 0.842995,0.0872 h 4.638917 c 0.447935,0 0.671923,0 0.843003,-0.0872 0.150485,-0.0767 0.272856,-0.19904 0.349519,-0.34952 0.08718,-0.17108 0.08718,-0.39507 0.08718,-0.84301 v -2.23947 c 0,-0.44794 0,-0.67191 -0.08718,-0.843 -0.07666,-0.15049 -0.199034,-0.27285 -0.349519,-0.34953 -0.17108,-0.0872 -0.395068,-0.0872 -0.843003,-0.0872 h -1.389476 c -0.195634,0 -0.293451,0 -0.385509,-0.0221 -0.08158,-0.0196 -0.159603,-0.0519 -0.231187,-0.0958 -0.0807,-0.0495 -0.149885,-0.11863 -0.288212,-0.25696 z m 0.774739,2.5743 c 0,0.55215 -0.447616,0.99977 -0.999767,0.99977 -0.552151,0 -0.999766,-0.44762 -0.999766,-0.99977 0,-0.55215 0.447615,-0.99976 0.999766,-0.99976 0.552151,0 0.999767,0.44761 0.999767,0.99976 z"
       stroke="#000000"
       stroke-width="0.799813"
       stroke-linecap="round"
       stroke-linejoin="round"
       id="path1"
       style="fill:none;fill-opacity:1;stroke:#023047;stroke-opacity:1" /><g
       style="fill:none;stroke:#023047;stroke-opacity:1"
       id="g2"
       transform="matrix(0.39990662,0,0,0.39990662,21.107878,272.23046)"><path
         d="m 9,13 2,2 4,-4 M 12.0627,6.06274 11.9373,5.93726 C 11.5914,5.59135 11.4184,5.4184 11.2166,5.29472 11.0376,5.18506 10.8425,5.10425 10.6385,5.05526 10.4083,5 10.1637,5 9.67452,5 H 6.2 C 5.0799,5 4.51984,5 4.09202,5.21799 3.71569,5.40973 3.40973,5.71569 3.21799,6.09202 3,6.51984 3,7.07989 3,8.2 v 7.6 c 0,1.1201 0,1.6802 0.21799,2.108 0.19174,0.3763 0.4977,0.6823 0.87403,0.874 C 4.51984,19 5.07989,19 6.2,19 h 11.6 c 1.1201,0 1.6802,0 2.108,-0.218 0.3763,-0.1917 0.6823,-0.4977 0.874,-0.874 C 21,17.4802 21,16.9201 21,15.8 V 10.2 C 21,9.0799 21,8.51984 20.782,8.09202 20.5903,7.71569 20.2843,7.40973 19.908,7.21799 19.4802,7 18.9201,7 17.8,7 H 14.3255 C 13.8363,7 13.5917,7 13.3615,6.94474 13.1575,6.89575 12.9624,6.81494 12.7834,6.70528 12.5816,6.5816 12.4086,6.40865 12.0627,6.06274 Z"
         stroke="#000000"
         stroke-width="2"
         stroke-linecap="round"
         stroke-linejoin="round"
         id="path1-0"
         style="stroke:#023047;stroke-opacity:1" /></g><g
       style="fill:none;stroke:#023047;stroke-opacity:1"
       id="g3"
       transform="matrix(0.39990662,0,0,0.39990662,32.659187,272.22977)"><path
         d="m 16,19 c -0.3782,-1.7117 -2.0253,-3 -4,-3 -1.9747,0 -3.62182,1.2883 -4,3 m 4,-7 h 0.01 M 12.0627,6.06274 11.9373,5.93726 C 11.5914,5.59135 11.4184,5.4184 11.2166,5.29472 11.0376,5.18506 10.8425,5.10425 10.6385,5.05526 10.4083,5 10.1637,5 9.67452,5 H 6.2 C 5.0799,5 4.51984,5 4.09202,5.21799 3.71569,5.40973 3.40973,5.71569 3.21799,6.09202 3,6.51984 3,7.07989 3,8.2 v 7.6 c 0,1.1201 0,1.6802 0.21799,2.108 0.19174,0.3763 0.4977,0.6823 0.87403,0.874 C 4.51984,19 5.07989,19 6.2,19 h 11.6 c 1.1201,0 1.6802,0 2.108,-0.218 0.3763,-0.1917 0.6823,-0.4977 0.874,-0.874 C 21,17.4802 21,16.9201 21,15.8 V 10.2 C 21,9.0799 21,8.51984 20.782,8.09202 20.5903,7.71569 20.2843,7.40973 19.908,7.21799 19.4802,7 18.9201,7 17.8,7 H 14.3255 C 13.8363,7 13.5917,7 13.3615,6.94474 13.1575,6.89575 12.9624,6.81494 12.7834,6.70528 12.5816,6.5816 12.4086,6.40865 12.0627,6.06274 Z M 13,12 c 0,0.5523 -0.4477,1 -1,1 -0.5523,0 -1,-0.4477 -1,-1 0,-0.5523 0.4477,-1 1,-1 0.5523,0 1,0.4477 1,1 z"
         stroke="#000000"
         stroke-width="2"
         stroke-linecap="round"
         stroke-linejoin="round"
         id="path1-2"
         style="stroke:#023047;stroke-opacity:1" /></g><text
       xml:space="preserve"
       style="font-style:normal;font-variant:normal;font-weight:normal;font-stretch:normal;font-size:2.83185px;line-height:1.25;font-family:Nunito;-inkscape-font-specification:'Nunito, Normal';font-variant-ligatures:normal;font-variant-caps:normal;font-variant-numeric:normal;font-variant-east-asian:normal;fill:#023047;fill-opacity:1;stroke:none;stroke-width:0.0707964;stroke-opacity:1"
       x="17.727077"
       y="284.58072"
       id="text3"><tspan
         sodipodi:role="line"
         id="tspan3"
         style="font-style:normal;font-variant:normal;font-weight:normal;font-stretch:normal;font-size:2.83185px;font-family:Nunito;-inkscape-font-specification:'Nunito, Normal';font-variant-ligatures:normal;font-variant-caps:normal;font-variant-numeric:normal;font-variant-east-asian:normal;stroke-width:0.0707964;stroke:none;stroke-opacity:1;fill:#023047;fill-opacity:1"
         x="17.727077"
         y="284.58072">many folders </tspan><tspan
         sodipodi:role="line"
         style="font-style:normal;font-variant:normal;font-weight:normal;font-stretch:normal;font-size:2.83185px;font-family:Nunito;-inkscape-font-specification:'Nunito, Normal';font-variant-ligatures:normal;font-variant-caps:normal;font-variant-numeric:normal;font-variant-east-asian:normal;stroke-width:0.0707964;stroke:none;stroke-opacity:1;fill:#023047;fill-opacity:1"
         x="17.727077"
         y="288.12051"
         id="tspan4">one package</tspan></text><path
       style="fill:none;stroke:#023047;stroke-width:0.264583px;stroke-linecap:butt;stroke-linejoin:miter;stroke-opacity:1"
       d="m 18.104994,284.872 c 1.72881,-0.0145 3.45762,-0.0291 5.186432,-0.0436"
       id="path5"
       inkscape:path-effect="#path-effect5"
       inkscape:original-d="m 18.104994,284.872 c 1.72881,-0.0145 3.457621,-0.029 5.186432,-0.0436"
       transform="matrix(1.0599331,0.00539649,-0.00958548,0.5967265,1.4963093,114.82558)" /></g></svg>
